Coordinates
version=1
nRows=20
nColumns=34
inDegrees=yes

Units are S.I. units (second, meters, Newtons, ...)
If the header above contains a line with 'inDegrees', this indicates whether rotational values are in degrees (yes) or radians (no).

endheader
time	pelvis_tilt	pelvis_list	pelvis_rotation	pelvis_tx	pelvis_ty	pelvis_tz	hip_flexion_r	hip_adduction_r	hip_rotation_r	knee_angle_r	ankle_angle_r	subtalar_angle_r	mtp_angle_r	hip_flexion_l	hip_adduction_l	hip_rotation_l	knee_angle_l	ankle_angle_l	subtalar_angle_l	mtp_angle_l	lumbar_extension	lumbar_bending	lumbar_rotation	arm_flex_r	arm_add_r	arm_rot_r	elbow_flex_r	pro_sup_r	arm_flex_l	arm_add_l	arm_rot_l	elbow_flex_l	pro_sup_l
      6.23333330	     -0.22869286	      3.16438070	      0.72078946	      0.23637889	      0.98411381	      0.02558908	      3.63132227	      5.61398373	    -16.39473130	      6.99947702	    -16.63777975	    -35.00000000	      0.00000000	     29.47631152	      0.52913403	      4.02825804	      2.58657190	     -3.58172213	     -8.22713603	      0.00000000	      0.46790893	     -1.62671492	      6.88636994	     57.38059410	     17.13431331	     66.82375307	    121.83001954	    104.27392132	     36.78948183	     27.77822803	     83.42890059	    138.58374489	     86.13094514
      6.25000000	      0.04537789	      3.25547488	      1.04350270	      0.23819458	      0.98352339	      0.02521901	      3.03209837	      5.38672552	    -18.59827503	      6.82126391	    -22.02318884	    -35.00000000	      0.00000000	     28.85807522	      0.83713081	      3.94373089	      2.24748643	     -4.16438455	     -8.58827800	      0.00000000	     -0.27716417	     -1.86438613	      6.40160438	     56.74692111	     17.03579951	     66.74001209	    122.34354171	    104.40117805	     38.83649654	     25.87594890	     82.30458646	    139.26832377	     86.51085371
      6.26666670	      0.30069457	      3.22817505	      0.97120567	      0.23683481	      0.98461484	      0.02529056	      2.82009534	      5.35369745	    -19.93067930	      6.68643468	    -24.45957251	    -35.00000000	      0.00000000	     28.28749768	      0.82308635	      3.64506587	      1.90998422	     -4.79803901	     -9.13689092	      0.00000000	     -0.45560338	     -1.80415115	      6.41517276	     56.43003874	     16.91785020	     66.67354097	    122.16852761	    104.57370457	     38.95852161	     25.65201241	     83.95184539	    141.42377270	     87.05912824
      6.28333330	      0.53274818	      3.30075308	      0.99741190	      0.23836984	      0.98457969	      0.02459979	      2.50864608	      5.13283330	    -21.04708439	      6.79858129	    -26.90501047	    -35.00000000	      0.00000000	     27.84525721	      0.96286763	      3.61220868	      1.68656554	     -5.08892407	     -9.62669508	      0.00000000	     -1.23187824	     -1.98887543	      4.95450380	     56.26886922	     17.79064375	     66.46040367	    122.26634205	    104.79142502	     40.63127862	     22.77362521	     79.20534843	    139.70547050	     87.25098480
      6.30000000	      0.47955083	      3.33402735	      0.92038459	      0.23669992	      0.98523831	      0.02419610	      2.51584939	      5.08297229	    -21.10205558	      6.98780069	    -26.79712369	    -35.00000000	      0.00000000	     27.89692241	      0.98681282	      3.45206155	      1.53896636	     -5.07124362	     -9.62955623	      0.00000000	     -1.33727701	     -1.92329736	      4.91860156	     56.11051333	     18.02526849	     66.63931020	    122.44593445	    104.83149068	     40.88088375	     22.05070903	     78.75988223	    139.62609454	     87.29424168
      6.31666670	      0.38343113	      3.46362369	      1.31017385	      0.23685364	      0.98293488	      0.02423362	      2.27920598	      5.00002052	    -21.66373127	      6.73280461	    -27.96739197	    -35.00000000	      0.00000000	     27.89845033	      1.26890232	      3.17277239	      1.22279983	     -5.22663381	     -9.23929851	      0.00000000	     -1.23850734	     -2.23647223	      4.19747475	     56.00854246	     18.79419428	     67.21907082	    122.55331662	    104.96299300	     40.08325497	     21.23923978	     76.60155729	    138.88839274	     87.43951224
      6.33333330	      0.35485409	      3.45577652	      1.30388811	      0.23827542	      0.98539411	      0.02390063	      2.28417588	      5.00540020	    -21.66687310	      6.74111642	    -27.96950115	    -35.00000000	      0.00000000	     27.89166669	      1.28066128	      3.16698750	      1.22167461	     -5.22522708	     -9.24129899	      0.00000000	     -1.25194469	     -2.23576037	      4.20084463	     56.01181937	     18.79896353	     67.21786503	    122.55340193	    104.96307629	     40.08131819	     21.23167659	     76.59488985	    138.88413222	     87.43994347
      6.35000000	      0.34361207	      3.61196845	      1.00855317	      0.23803901	      0.98468737	      0.02442165	      2.42764552	      4.82266289	    -21.55618224	      6.75987929	    -27.83015744	    -35.00000000	      0.00000000	     27.67234838	      1.30106053	      2.52457391	      0.91641449	     -5.52922736	     -9.16447461	      0.00000000	     -1.50784973	     -2.45149842	      3.83855653	     56.23469734	     19.37975328	     67.29848069	    122.57219493	    104.98412716	     39.81028884	     19.98656267	     73.26256787	    137.56074658	     87.49152471
      6.36666670	      0.37689538	      3.58746326	      1.01518591	      0.23829248	      0.98412269	      0.02420111	      2.50985494	      4.81626279	    -21.55258655	      6.72049475	    -27.82018355	    -35.00000000	      0.00000000	     27.61156547	      1.29944097	      2.51926591	      0.93800048	     -5.52717565	     -9.16699162	      0.00000000	     -1.50361118	     -2.45845171	      3.83500597	     56.23682963	     19.37560089	     67.29552589	    122.56924790	    104.98400479	     39.80341824	     19.99376832	     73.26372193	    137.56827444	     87.49236436
      6.38333330	      0.47869560	      3.48370184	      0.95823346	      0.23887388	      0.98344794	      0.02418094	      2.48913338	      4.94768207	    -21.51480496	      6.64846801	    -26.30937684	    -35.00000000	      0.00000000	     27.35855926	      1.17429503	      2.24962619	      0.73009462	     -5.46147152	     -9.21946408	      0.00000000	     -1.49245095	     -2.35341352	      4.45992403	     56.56674706	     18.89478073	     66.33088468	    121.99301217	    104.93955622	     39.18315136	     20.56945327	     73.86982584	    140.31521141	     87.83045852
      6.40000000	      0.50647495	      3.60348437	      0.81036707	      0.23693971	      0.98455659	      0.02407750	      2.37852346	      4.80690507	    -21.45310671	      6.65219562	    -26.24963573	    -35.00000000	      0.00000000	     27.35204637	      1.26860931	      2.32420246	      0.89767831	     -5.46125590	     -9.17996695	      0.00000000	     -1.27098183	     -2.32535349	      4.42156694	     56.62245792	     19.03961922	     66.34822779	    122.01441369	    104.94111059	     39.30720461	     20.73143965	     73.85859486	    140.31686776	     87.84516059
      6.41666670	      0.36276170	      3.66381550	      0.67136668	      0.23836603	      0.98298401	      0.02415005	      2.70301504	      4.70390312	    -21.48912952	      6.91142435	    -26.36600308	    -35.00000000	      0.00000000	     27.57873736	      1.25088681	      1.98349719	      1.03514090	     -5.32874071	     -9.25346195	      0.00000000	     -1.53864356	     -2.54366679	      3.93843051	     56.78890594	     19.73099480	     66.63261904	    122.02552736	    104.97488861	     40.96289587	     20.34221763	     72.26146622	    138.96827502	     87.92578361
      6.43333330	      0.40834130	      3.75778075	      0.72648497	      0.23861466	      0.98245243	      0.02412261	      2.67290855	      4.61466342	    -21.07249049	      6.95243414	    -25.44941163	    -35.00000000	      0.00000000	     27.53078481	      1.37546813	      2.07589928	      1.07225463	     -5.13146427	     -9.26568548	      0.00000000	     -1.61811422	     -2.74074770	      3.34220442	     56.65046775	     20.08063457	     67.20188393	    122.39100419	    105.06054267	     40.66964230	     19.44978702	     69.23630730	    136.97686567	     88.05407385
      6.45000000	      0.42334552	      3.73745041	      0.65039151	      0.23853986	      0.98235110	      0.02433609	      2.74401863	      4.69520606	    -20.23475647	      6.93745378	    -23.36677085	    -35.00000000	      0.00000000	     27.54349910	      1.27523637	      2.06808674	      1.07712277	     -5.07550232	     -9.19798861	      0.00000000	     -1.75717913	     -2.79556158	      2.81884861	     56.36092409	     20.23543552	     67.17542418	    122.62783686	    105.11312396	     40.64000657	     17.95540339	     64.86893999	    134.38994881	     88.02928784
      6.46666670	      0.47442060	      3.67121173	      0.97569530	      0.23932505	      0.98177573	      0.02390097	      2.58058186	      4.76525642	    -19.90697719	      7.08772857	    -21.51892500	    -35.00000000	      0.00000000	     27.56179557	      1.33173660	      2.50142734	      0.92166406	     -4.49964394	     -8.49469025	      0.00000000	     -1.87122530	     -2.71982570	      2.14400213	     56.05504809	     20.16328455	     67.24732303	    122.91406172	    105.12274789	     40.22481886	     15.62567211	     56.71184173	    128.09727416	     87.66657164
      6.48333330	      0.43151559	      3.55680027	      1.09186494	      0.23811704	      0.98190385	      0.02394000	      2.60022797	      4.99040143	    -18.88414184	      6.99212040	    -20.03407401	    -35.00000000	      0.00000000	     27.72035716	      1.21058806	      2.46511910	      0.98668302	     -4.44192283	     -8.25985281	      0.00000000	     -1.83856310	     -2.67414412	      2.31096034	     56.05433476	     19.92622889	     67.15214350	    123.09551666	    105.09889363	     39.08821188	     15.46607962	     52.42181415	    125.99726027	     87.39292324
      6.50000000	      0.48843591	      3.47426545	      1.36080506	      0.23751479	      0.98401508	      0.02400774	      2.32172132	      5.14436044	    -18.68928094	      6.72508685	    -20.23918922	    -35.00000000	      0.00000000	     27.68011040	      1.19478181	      2.61145005	      0.82062373	     -4.59459686	     -8.05772129	      0.00000000	     -1.60024088	     -2.60843187	      2.88870904	     56.30008109	     19.98395683	     67.15730474	    122.71529858	    105.05878192	     37.11011859	     17.12161992	     53.44738744	    126.82665627	     87.40433572
      6.51666670	      0.25602641	      3.25909458	      1.63719234	      0.23818526	      0.98144600	      0.02397906	      2.76275095	      5.48958045	    -17.26953812	      6.75573577	    -16.64089550	    -35.00000000	      0.00000000	     28.04828298	      1.01733867	      3.00173218	      0.65071441	     -3.89210250	     -7.19480807	      0.00000000	     -1.12170978	     -2.13684406	      3.56242891	     56.64272935	     20.38524501	     67.65894648	    122.28949604	    104.94271090	     35.96384955	     19.35272029	     57.39068767	    128.22155829	     87.56666414
      6.53333330	      0.15143105	      3.13900960	      1.87527918	      0.23912535	      0.98184983	      0.02371653	      2.89773184	      5.69065449	    -16.33577817	      6.75720353	    -15.74174322	    -35.00000000	      0.00000000	     28.19503611	      0.96130502	      3.30826457	      0.76821135	     -3.66125888	     -6.63569460	      0.00000000	     -0.58861034	     -1.93155587	      4.67430417	     56.90726118	     20.08960290	     67.78341273	    122.25172860	    104.76370586	     35.05275662	     21.75709301	     64.44224891	    131.67959876	     88.02165510
      6.55000000	      0.22527186	      3.04411111	      2.43395274	      0.24118556	      0.98296738	      0.02260771	      2.53214917	      5.78575370	    -17.45592294	      6.52868232	    -18.72555923	    -35.00000000	      0.00000000	     28.03001337	      1.09156479	      3.45800231	      0.76376749	     -3.83570494	     -6.54335449	      0.00000000	     -0.14636861	     -1.83531887	      5.10909522	     56.73547676	     19.95568212	     68.48101372	    122.63988484	    104.68276139	     34.73427100	     23.12657213	     69.20632150	    132.40374049	     88.44202216
